<?xml version="1.0" encoding="utf-8"?>
<svg viewBox="7.248 1.46 11.996 23.572" version="1.1" x="0px" y="0px" xmlns="http://www.w3.org/2000/svg">
  <g transform="translate(0,-270.54165)" style="opacity:1">
    <path style="opacity:1;vector-effect:none;fill:#000000;fill-opacity:1;stroke:none;stroke-width:0.80552411;stroke-linecap:round;stroke-linejoin:round;stroke-miterlimit:4;stroke-dasharray:none;stroke-dashoffset:0;stroke-opacity:1;paint-order:stroke fill markers" d="m 9.3146377,272.12681 c -0.9825879,0 -1.7731584,0.79057 -1.7731584,1.77316 v 1.36661 h -0.044728 c -0.052095,0 -0.094249,0.0422 -0.094249,0.0942 v 0.78914 c 0,0.0521 0.042154,0.0942 0.094249,0.0942 h 0.044728 v 0.69249 h -0.044728 c -0.052095,0 -0.094249,0.0422 -0.094249,0.0943 v 1.53833 c 0,0.0521 0.042154,0.0942 0.094249,0.0942 h 0.044728 v 0.38179 h -0.044728 c -0.052095,0 -0.094249,0.0421 -0.094249,0.0942 v 1.53833 c 0,0.0521 0.042154,0.0942 0.094249,0.0942 h 0.044728 v 12.86978 c 0,0.98258 0.7905705,1.77315 1.7731584,1.77315 h 7.8961463 c 0.982588,0 1.773957,-0.79057 1.773957,-1.77315 v -13.42229 c 0.03943,-0.0112 0.07109,-0.0416 0.07109,-0.0847 v -2.49201 c 0,-0.0431 -0.03171,-0.0734 -0.07109,-0.0847 v -3.65814 c 0,-0.98259 -0.791369,-1.77316 -1.773957,-1.77316 z m -0.1285939,0.52317 h 1.1669302 c -0.01114,0.0439 -0.01917,0.0891 -0.01917,0.13658 v 0.18051 c 0,0.30617 0.246542,0.55271 0.552714,0.55271 h 4.753183 c 0.306173,0 0.552715,-0.24654 0.552715,-0.55271 v -0.18051 c 0,-0.0474 -0.008,-0.0927 -0.01917,-0.13658 h 1.166929 c 0.64646,0 1.16693,0.52047 1.16693,1.16693 V 293.725 c 0,0.64646 -0.52047,1.16693 -1.16693,1.16693 H 9.186044 c -0.6464596,0 -1.1669299,-0.52047 -1.1669299,-1.16693 v -19.90809 c 0,-0.64646 0.5204703,-1.16693 1.1669297,-1.16693 z"/>
  </g>
  <text x="0" y="41.458334" fill="#000000" font-size="5px" font-weight="bold" font-family="'Helvetica Neue', Helvetica, Arial-Unicode, Arial, Sans-serif" style="white-space: pre;">Created by Adam Robinson</text>
  <text x="0" y="46.458334" fill="#000000" font-size="5px" font-weight="bold" font-family="'Helvetica Neue', Helvetica, Arial-Unicode, Arial, Sans-serif" style="white-space: pre;">from the Noun Project</text>
</svg>